<?xml version="1.0" encoding="UTF-8"?>
<svg id="Ebene_1" data-name="Ebene 1" xmlns="http://www.w3.org/2000/svg" width="944.369862" height="285.114612" xmlns:xlink="http://www.w3.org/1999/xlink" viewBox="0 0 944.369862 285.114612">
  <defs>
    <style>
      .cls-1 {
      fill: none;
      }

      .cls-2 {
      clip-path: url(#clippath);
      }

      .cls-3 {
      fill: #00d8ff;
      }

      .cls-4 {
      fill: #242265;
      }

      .cls-5 {
      clip-path: url(#clippath-1);
      }
    </style>
    <clipPath id="clippath">
      <rect class="cls-1" width="944.369862" height="285.114612"/>
    </clipPath>
    <clipPath id="clippath-1">
      <rect class="cls-1" width="944.369862" height="285.114612"/>
    </clipPath>
  </defs>
  <g id="vsdx-export">
    <g class="cls-2">
      <g class="cls-5">
        <g>
          <path class="cls-4" d="m.00051,95.722441l.229633,49.531791c.115792,25.164379,13.647806,48.355448,35.498674,60.837377l43.015317,24.573248c21.851624,12.47056,48.694263,12.34512,70.428374-.329135l42.783129-24.968743c21.731824-12.683131,35.046108-35.996974,34.92715-61.158861l-.232193-49.541992c-.110198-25.16124-13.643283-48.349969-35.496128-60.822062l-43.012772-24.570706c-21.846879-12.479801-48.692155-12.356279-70.423264.324038l-42.793339,24.973838C13.192877,47.249938-.121349,70.562477.000501,95.722441"/>
          <path class="cls-3" d="m193.292849,113.024272c-2.183583-5.14308-6.459492-9.108931-11.752101-10.8999-3.245484-1.387999-6.695072-2.17131-10.024748-3.304156-2.718962-.930826-5.316261-2.184936-7.736067-3.735361-3.321344-2.275074-6.420657-4.858406-9.256747-7.715656-4.638584-4.37578-9.108765-8.937818-13.762659-13.298288-4.51364-4.28461-7.963919-9.56443-10.075779-15.418567-1.169686-3.565592-2.651892-7.020946-4.429361-10.325822-2.665168-5.032458-7.561844-8.500191-13.193681-9.343501-6.649142-.436303-11.259655,2.824481-14.818964,8.067764-2.814279,4.148697-3.64095,9.0807-5.429535,13.629978-.867911,2.439754-1.910774,4.813692-3.120453,7.103308-1.730157,2.847512-3.746963,5.510646-6.018933,7.947844-2.355012,2.671397-4.70492,5.352994-7.118618,7.965705-3.299055,3.564409-6.735893,7.003796-10.200795,10.410023-3.276626,3.22961-7.144484,5.798079-11.392337,7.565124-4.578638,1.633565-9.044128,3.568409-13.367179,5.79185-2.907811,1.586993-5.330257,3.933595-7.008901,6.789473-4.482942,8.032041-1.069067,16.661129,6.452679,21.271653,4.564301,2.468627,9.416701,4.362621,14.446454,5.638758,5.848637,2.236015,11.156747,5.686635,15.574204,10.124249,1.673768,1.45434,3.143418,3.151073,4.837597,4.572243,2.982676,2.508104,5.544356,5.439745,8.417316,8.060111,2.437578,2.131569,4.620032,4.538333,6.503709,7.172189,1.642072,2.285898,3.062045,4.723418,4.240548,7.27935,1.755911,4.879498,3.858582,9.627151,6.291937,14.206615,2.284973,4.06217,6.187958,6.962518,10.736608,7.97846,5.594696,1.243969,11.399744-.900624,14.841934-5.483125,2.738351-3.45971,4.713899-7.45951,5.79695-11.736782,1.469796-5.990298,4.205042-11.596508,8.02184-16.441706,3.112803-3.684331,6.51902-7.075237,9.723674-10.660067,2.278471-2.551475,4.878417-4.827387,7.159439-7.358451,4.760179-5.409485,10.828946-9.506869,17.625592-11.900084,5.006378-1.416576,9.659484-3.868734,13.658038-7.197709,4.876091-4.084546,6.632897-10.807698,4.37834-16.75554m-35.858433,23.29497c-1.240017,1.612532-2.344802,3.350086-3.720051,4.840147-4.266069,4.630924-8.537237,9.264407-13.004869,13.696318-1.872786,1.857476-3.61034,3.837423-5.518846,5.659168-5.550157,5.441302-13.014349,8.486713-20.786866,8.481107-5.106814-.049016-10.143667-1.193162-14.770493-3.355196-1.710476-.835957-3.287454-1.921101-4.679404-3.219964-4.098659-3.324965-8.007698-6.877091-11.708721-10.639647-2.980121-3.156173-6.182225-6.100574-9.315438-9.108765-7.275258-6.825145-10.700347-16.809024-9.147036-26.662917.779821-6.300142,3.593545-12.173934,8.014185-16.73002,4.511007-4.837597,9.129181-9.578242,13.558541-14.489829,1.898296-2.104969,3.913964-4.069601,5.995963-5.975552,3.741853-3.487994,8.324842-5.945209,13.300843-7.131373,5.425281-1.413573,11.145904-1.206,16.454466.597043,4.855729,1.272667,9.256514,3.883256,12.701245,7.534504,2.763248,2.788758,5.81226,5.294313,8.639299,8.02184,4.335923,3.760346,8.43465,7.785783,12.272599,12.053166,5.222599,6.407712,7.592367,14.675118,6.55729,22.876525-.303644,4.884131-1.982488,9.582777-4.842697,13.553436"/>
          <path class="cls-4" d="m277.942598,226.565508h-7.95841v-4.634496h7.95841v-10.903608c0-7.46755,3.893242-13.734112,12.371166-13.734112,3.574288-.05141,7.057124,1.130344,9.862069,3.346319l-2.423154,3.777379c-1.972258-1.471373-4.372909-2.254791-6.833418-2.229991-4.67191,0-7.699275,3.002468-7.699275,8.840482v10.903569h12.543053v4.634496h-12.543053v33.30871h-5.277367l-.000019-33.308749Z"/>
          <path class="cls-4" d="m299.219147,240.902624c.058107-10.941139,8.97476-19.763576,19.91588-19.705469,10.941159.058107,19.763596,8.97476,19.705469,19.915899-.058048,10.933859-8.963333,19.753337-19.897251,19.705547-10.514654.382861-19.348829-7.830556-19.73171-18.34521-.019057-.523466-.016507-1.047516.007611-1.570767Zm34.256812,0c.312121-7.978713-5.902895-14.699753-13.881588-15.011874-7.978713-.312121-14.699753,5.902875-15.011874,13.881588-.014736.376613-.014736.753673,0,1.130286,0,8.842954,5.882825,15.022327,14.360768,15.022327,7.806495.231551,14.322653-5.909163,14.554185-13.715658.012926-.435654.005723-.871677-.021646-1.306669h.000156Z"/>
          <path class="cls-4" d="m371.964705,222.444277l-1.556051,4.637007c-1.628971-.625547-3.359245-.945668-5.104196-.944345-6.229187,0-10.467526,4.377873-10.467526,11.760725v21.976573h-5.277367v-37.943225h3.979205l1.039028,5.57886c2.155649-4.118992,6.516703-6.601167,11.158966-6.351279,2.14358-.016936,4.266331.421288,6.227941,1.285685Z"/>
          <path class="cls-4" d="m429.227132,221.931012v.171926l-23.530132,56.658176h-5.536385v-.171926l8.476678-19.659315-16.695468-36.826955v-.171926h5.536502l10.987041,24.293811c.950574,2.232541,1.902394,4.377873,2.768368,7.038982.864611-2.661187,1.729222-4.893727,2.595079-7.038982l9.948012-24.293811,5.450305.000019Z"/>
          <path class="cls-4" d="m439.084198,201.499258h35.381784v5.150311h-29.672111v22.233196h26.64348v5.152803h-26.64348v25.838786h-5.709673v-58.375096Z"/>
          <path class="cls-4" d="m481.467588,208.194388c.01569-2.197657,1.809929-3.966493,4.007587-3.950823,2.175505.015515,3.935289,1.775299,3.950823,3.950823-.114345,2.197657-1.98859,3.886507-4.186247,3.772162-2.037762-.106032-3.666149-1.734381-3.772162-3.772162Zm1.296917,13.736604h5.277367v37.943225h-5.277251l-.000117-37.943225Z"/>
          <path class="cls-4" d="m501.534292,198.322392h5.277367l.085963,61.551787h-5.276122l-.087209-61.551787Z"/>
          <path class="cls-4" d="m553.86694,239.357767c-.003738,1.234469-.090323,2.467284-.259134,3.690171h-30.62393c.574331,7.406134,6.84759,13.065584,14.27356,12.876995,4.38562.25201,8.659037-1.443848,11.67848-4.634515l3.027385,3.777379c-3.899938,3.80687-9.170259,5.880158-14.618657,5.750805-11.001757-.109244-19.831902-9.116493-19.722619-20.11827.106013-10.679766,8.615355-19.375829,19.290314-19.713645,10.640698-.000039,16.954602,7.295585,16.954602,18.37108Zm-30.709932-.944345h25.519851c-.171926-8.070554-4.843816-12.533125-11.851613-12.533125-7.126346-.023379-13.07522,5.431462-13.668238,12.533125Z"/>
          <path class="cls-4" d="m561.042964,256.353481l2.681042-4.118739c3.277565,2.333979,7.225118,3.539054,11.247421,3.433528,4.669399,0,7.699275-2.317258,7.699275-5.753277,0-3.690171-4.240831-5.57886-8.825551-7.382852-6.226696-2.401955-11.419346-5.322198-11.419346-11.416854,0-6.35126,5.882844-9.615354,12.371166-9.615354,4.115429.000779,8.142482,1.194252,11.593763,3.43602l-2.337152,3.777379c-2.745787-1.553754-5.842588-2.38134-8.997438-2.404466-3.891996,0-7.352933,1.288196-7.352933,4.806421,0,3.433547,3.548145,5.150311,8.045618,6.867076,6.921873,2.576411,12.196749,5.581352,12.196749,11.932631,0,6.353752-5.449293,10.646927-12.974268,10.646927-4.966181.070546-9.832149-1.399718-13.928346-4.208439Z"/>
          <path class="cls-4" d="m620.81077,226.565508h-7.95841v-4.634496h7.95841v-10.903608c0-7.46755,3.891996-13.734112,12.371166-13.734112,3.574269-.05141,7.057124,1.130364,9.862049,3.346319l-2.421908,3.777379c-1.972745-1.471373-4.373785-2.254791-6.834664-2.229991-4.671735,0-7.699275,3.002468-7.699275,8.840482v10.903569h12.543053v4.634496h-12.543053v33.30871h-5.277367v-33.308749Z"/>
          <path class="cls-4" d="m642.002465,240.902624c.058438-10.940789,8.975091-19.762681,19.91588-19.704243,10.940789.058457,19.76272,8.975091,19.704243,19.91588-.058399,10.933041-8.962944,19.75178-19.896024,19.70434-10.514245.38327-19.34844-7.829524-19.73169-18.343769-.019116-.523953-.016585-1.04847.007592-1.572208Zm34.258038,0c.312082-7.978713-5.902856-14.699753-13.881588-15.011874s-14.699753,5.902875-15.011874,13.881588c-.014716.376613-.014716.753673,0,1.130286,0,8.842954,5.880353,15.022327,14.359522,15.022327,7.80704.231765,14.323783-5.909221,14.555508-13.716242.012926-.435459.005762-.871288-.021569-1.306085Z"/>
          <path class="cls-4" d="m714.746914,222.444277l-1.557297,4.637007c-1.628543-.625663-3.358388-.945805-5.10295-.944345-6.229187,0-10.467526,4.377873-10.467526,11.760725v21.976573h-5.277367v-37.943225h3.979205l1.039028,5.57886c2.155532-4.118388,6.515886-6.600427,11.157565-6.351279,2.144008-.017208,4.267305.421015,6.229343,1.285685Z"/>
          <path class="cls-4" d="m773.306179,236.696638v23.177599h-5.274876v-23.349505c0-6.353752-2.596325-10.475001-8.997438-10.475001-8.132827,0-12.6303,6.869567-12.6303,15.109536v18.715068h-5.277367v-61.551787h5.277367v24.552848c0,1.888709,0,3.690171-.087209,5.922711,2.542209-4.912026,7.710799-7.895242,13.235777-7.639475,9.343859-.000058,13.754045,5.835444,13.754045,15.538007Z"/>
          <path class="cls-4" d="m788.266273,249.142554v-22.577047l-7.437572-.343832v-4.290664h7.437572v-12.620353h5.277367v12.620333h13.669329v4.634496h-13.669329v22.577066c0,4.808952,1.990848,6.438488,5.364576,6.438488,2.719741-.026844,5.358425-.929414,7.524858-2.5739l2.337113,3.949305c-2.97506,2.302055-6.621237,3.568215-10.382809,3.605473-6.226618,0-10.121106-3.605415-10.121106-11.419366Z"/>
          <path class="cls-4" d="m872.866112,236.093672v23.780545h-5.277367v-24.037188c0-6.094637-3.112102-9.787299-8.476678-9.787299-7.699275,0-11.67848,6.954284-11.67848,14.080474v19.744032h-5.277367v-24.121905c0-5.23752-2.681042-9.702602-8.476678-9.702602-7.786484,0-11.765689,6.954284-11.765689,14.080474v19.744032h-5.277367v-37.943225h3.979127l1.210954,6.523205c2.412798-4.61721,7.251085-7.450497,12.458375-7.295644,5.200748-.338284,10.011394,2.762956,11.850406,7.639475,2.578105-4.920085,7.774415-7.8997,13.322986-7.639475,8.73589,0,13.407781,5.750786,13.407781,14.935099Z"/>
          <path class="cls-4" d="m885.832788,198.322392h5.277367l.087209,61.551787h-5.277367l-.087209-61.551787Z"/>
          <path class="cls-4" d="m333.550553,91.569053v.403671l-28.665474,60.440539h-6.355017l-28.529678-60.440548v-.403671h16.225768l11.763178,27.042148c1.607111,3.661779,2.874458,7.463442,3.786081,11.357074.97444-3.875576,2.240074-7.672052,3.7861-11.357074l11.763197-27.042138h16.225845Z"/>
          <path class="cls-4" d="m338.55882,146.600107l5.814284-10.4127c4.913894,3.196459,10.634546,4.931531,16.496173,5.003264,5.40818,0,8.923934-2.434366,8.923934-6.219221,0-4.462531-5.679773-6.625364-11.628647-8.925063-9.600423-3.650323-17.036827-8.653587-17.036827-18.523121,0-11.087944,9.87077-16.900972,21.363621-16.900972,6.952162-.044733,13.782388,1.825969,19.74154,5.406935l-5.139079,9.872016c-4.132248-2.18514-8.712609-3.388211-13.385278-3.515753-4.59714,0-8.519037,1.350498-8.519037,5.137834,0,3.921896,4.462512,6.219221,10.952157,8.519046,10.54726,3.919395,18.11946,8.922688,18.11946,18.929245,0,11.222514-9.059769,18.25402-22.310457,18.25402-8.280926.153423-16.421383-2.152282-23.391844-6.625529Z"/>
          <path class="cls-4" d="m457.010553,54.520329v97.35225h-10.141117l-2.568917-9.05973c-5.073128,6.890776-13.217829,10.83681-21.769764,10.54726-17.307174,0-29.070371-12.981655-29.070371-32.045431,0-18.119479,12.169379-31.233174,29.070371-31.233174,7.648274-.149209,14.989994,3.004133,20.147683,8.653606-.271593-5.543996-.406143-10.68183-.406143-17.307193v-26.907588h14.738257Zm-14.197564,67.200472c0-11.087944-6.89571-18.660134-17.307174-18.660134-10.275667,0-17.171417,7.57219-17.171417,18.660134,0,11.222514,6.89571,18.794723,17.171417,18.794723,10.54726,0,17.307174-7.57222,17.307174-18.794723Z"/>
          <path class="cls-4" d="m467.970185,151.600996l20.282234-31.098575-18.524357-28.529678v-.403671h16.496134l7.570954,12.438441c1.40184,2.312177,2.666053,4.705022,3.7861,7.166076l4.056447-7.300607,7.707996-12.3039h16.089991v.403671l-18.388483,28.529678,20.28091,31.098565v.271602h-16.630684l-8.789383-14.063013c-1.486284-2.431884-2.703467-4.866251-4.326793-8.112903-1.270598,2.792408-2.715731,5.502066-4.326793,8.112903l-8.923934,14.063013h-16.360337v-.271602Z"/>
          <path class="cls-4" d="m623.47437,119.558037c-.05653,2.350876-.236982,4.697138-.540693,7.029005h-43.267935c1.891181,9.734974,9.46342,14.875309,19.198355,14.875309,5.85201.231823,11.567834-1.803165,15.956686-5.681009l6.219221,9.46597c-6.570702,5.546712-14.928753,8.524516-23.526394,8.381975-19.335397,0-32.586124-13.113666-32.586124-32.04293,0-17.713307,12.844584-31.641789,31.098595-31.641789,17.035581.000029,27.448291,11.494018,27.448291,29.613469Zm-43.674078-2.975021h29.745615c-.406143-9.600414-6.08467-14.603697-13.791421-14.603697-7.978343-.000049-14.331997,5.272345-15.954194,14.603648v.000049Z"/>
          <path class="cls-4" d="m630.244251,151.600996l20.279859-31.098604-18.523228-28.529678v-.403671h16.494771l7.572161,12.438441c1.401801,2.312411,2.666404,4.705236,3.787346,7.166076l4.056447-7.300617,7.70675-12.3039h16.088745v.403671l-18.388483,28.529678,20.282312,31.098604v.271602h-16.63193l-8.788137-14.063013c-1.48753-2.431884-2.703467-4.866251-4.325548-8.112903-1.271533,2.792204-2.717016,5.501832-4.328039,8.112903l-8.922688,14.063013h-16.360337v-.271602Z"/>
          <path class="cls-4" d="m764.109485,121.449218c0,18.794704-12.03479,31.91089-28.80127,31.91089-7.632545.147194-14.981585-2.890849-20.282234-8.384506.271593,4.193499.271593,9.05973.271593,14.334615v22.307965h-14.738257v-90.049209h10.006566l2.838018,9.19429c5.152394-6.883768,13.307802-10.860831,21.904392-10.68183,16.631852.000078,28.801192,13.250756,28.801192,31.367783Zm-15.00985.406143c0-11.222514-6.759914-18.794704-16.900953-18.794704-10.410218,0-17.441724,7.437552-17.441724,18.525593,0,11.357044,7.166057,18.929391,17.441724,18.929391,10.141039-.000117,16.900953-7.706867,16.900953-18.66028Z"/>
          <path class="cls-4" d="m774.123527,121.720801c0-18.660134,13.385278-31.77632,32.314454-31.77632s32.451574,13.116186,32.451574,31.77633c0,18.657662-13.52232,31.908389-32.451574,31.908389s-32.314454-13.250737-32.314454-31.908399Zm49.756334,0c0-11.087944-7.029015-18.794704-17.441724-18.794704-10.275667,0-17.441724,7.70676-17.441724,18.794704s7.166057,18.794723,17.441724,18.794723c10.412632,0,17.441646-7.70675,17.441646-18.794723h.000078Z"/>
          <path class="cls-4" d="m893.118367,92.78498l-3.784854,12.438441c-2.514489-.909354-5.169992-1.366557-7.843793-1.350468-8.519037,0-14.332114,5.543977-14.332114,15.141908v32.857717h-14.738257v-60.303526h10.006566l2.838018,8.922688c3.264873-6.578158,10.105611-10.608316,17.44188-10.275667,3.637534-.084532,7.231775.802222,10.412554,2.568907Z"/>
          <path class="cls-4" d="m907.0494,133.484018v-29.341964l-10.68181-.809814v-11.763188h10.68181l.406143-19.336633h14.332114v19.336633h18.657662v12.573011h-18.657662v27.854453c0,5.950042,2.703467,7.70676,6.625364,7.70676,3.614408-.004915,7.145267-1.087587,10.141117-3.10961l4.731691,11.087944c-5.405922,3.605395-11.756112,5.534049-18.25401,5.543977-10.816361-.000039-17.982418-6.221761-17.982418-19.741569Z"/>
        </g>
      </g>
    </g>
  </g>
</svg>
